<svg width="109" height="23" viewBox="0 0 109 23" fill="none" xmlns="http://www.w3.org/2000/svg">
<path d="M23.6 15V6.408H32.66V8.352H26.636V9.792H32.18V11.46H26.636V13.056H32.78V15H23.6ZM33.3809 11.304V9.816H38.3849V11.304H33.3809ZM48.8046 15.24C47.5086 15.24 46.8606 14.496 46.3686 13.788L45.8286 12.888C45.4686 12.384 44.9406 12.144 44.3766 12.144H42.5406V15H39.4086V6.408H46.6326C48.9366 6.408 50.2566 7.404 50.2566 9.132C50.2566 10.416 49.3446 11.316 47.7726 11.616V11.628C48.0606 11.736 48.3246 11.964 48.5286 12.276L49.1406 13.2C49.2966 13.416 49.5006 13.56 49.8366 13.56C50.0406 13.56 50.3286 13.452 50.4726 13.284L51.0006 14.544C50.5326 14.952 49.5966 15.24 48.8046 15.24ZM42.5406 10.38H45.6966C46.5966 10.38 47.1246 9.984 47.1246 9.324C47.1246 8.652 46.5966 8.256 45.6966 8.256H42.5406V10.38ZM57.5278 15.3C53.7598 15.3 51.2397 13.464 51.2397 10.704C51.2397 7.944 53.7598 6.108 57.5278 6.108C61.3078 6.108 63.8278 7.944 63.8278 10.704C63.8278 13.464 61.3078 15.3 57.5278 15.3ZM57.5278 13.092C59.4118 13.092 60.6958 12.132 60.6958 10.704C60.6958 9.276 59.4118 8.316 57.5278 8.316C55.6438 8.316 54.3717 9.276 54.3717 10.704C54.3717 12.132 55.6438 13.092 57.5278 13.092ZM70.8748 15.216C67.0468 15.216 64.6108 13.548 64.6108 10.704C64.6108 7.944 66.9028 6.192 70.5148 6.192C73.2628 6.192 75.3748 7.38 75.9508 9.264L73.1068 9.864C72.8188 8.964 71.8348 8.4 70.5988 8.4C68.8588 8.4 67.7428 9.3 67.7428 10.704C67.7428 12.108 68.9908 13.008 70.9588 13.008C72.5068 13.008 73.6348 12.348 73.8868 11.304L76.7668 11.82C76.3108 13.896 74.0308 15.216 70.8748 15.216ZM77.5531 15V6.408H80.6851V9.552H80.7091L84.3811 6.408H88.3171L84.1411 9.912L88.3411 15H84.5371L81.9811 11.724L80.6851 12.816V15H77.5531ZM88.9438 15V6.408H98.0038V8.352H91.9798V9.792H97.5238V11.46H91.9798V13.056H98.1238V15H88.9438ZM101.819 15V8.616H98.4713V6.408H108.299V8.616H104.951V15H101.819Z" fill="black"/>
<path d="M34.96 1.05304C35.0257 1.12317 35.0169 1.13632 34.8856 1.21523C34.8067 1.26345 34.5528 1.46948 34.3208 1.67113C34.0887 1.87278 33.6465 2.25415 33.3357 2.52156C33.0248 2.78457 32.7621 3.01252 32.749 3.02568C32.7359 3.04321 32.6001 3.15718 32.4469 3.28431C32.2937 3.41144 32.1404 3.53856 32.1142 3.56486C32.0835 3.59555 31.8077 3.83227 31.5012 4.09967C31.1948 4.36269 30.7701 4.73091 30.5599 4.91064C30.109 5.30079 29.3953 5.91011 28.4365 6.72985C27.666 7.3874 27.3595 7.65042 27.0574 7.91344C26.9479 8.00988 26.7422 8.18522 26.5977 8.30797C26.4576 8.42633 26.1686 8.67619 25.9628 8.85592C25.3762 9.36004 24.3911 10.2061 23.8394 10.6751C23.695 10.7935 23.3972 11.0521 23.1783 11.245C22.9594 11.4379 22.6267 11.7228 22.4384 11.8806C22.2545 12.0384 22.0575 12.205 22.0006 12.2532C21.9481 12.3015 21.6591 12.547 21.3658 12.8012C21.0681 13.0555 20.7353 13.3404 20.6259 13.4412C20.4245 13.6209 19.5226 14.3968 18.5419 15.2254C18.2529 15.4708 17.942 15.747 17.8501 15.8347C17.6794 15.9969 17.6005 16.0407 17.6005 15.9618C17.6005 15.9399 17.4561 15.8084 17.2809 15.6681C17.1102 15.5278 16.8387 15.3043 16.6811 15.1771C16.5235 15.0456 16.3571 14.9097 16.309 14.8703C15.9938 14.6116 15.1137 13.9059 15.0218 13.8357C14.9605 13.7875 14.7985 13.656 14.6672 13.5464C14.5358 13.4324 14.4045 13.3272 14.3782 13.3141C14.3476 13.2966 14.1418 13.3711 13.9185 13.4763C13.021 13.8971 11.9046 14.3881 11.8827 14.3705C11.8739 14.3574 11.8345 14.0856 11.7995 13.7612C11.7601 13.4368 11.6988 12.9283 11.6638 12.6259C11.6287 12.3234 11.5718 11.8412 11.5368 11.5519C11.5018 11.2625 11.4755 11.0258 11.4711 11.0258C11.4711 11.0214 11.331 10.925 11.1646 10.8066C10.9939 10.6839 10.486 10.3244 10.0351 10.0001C9.58412 9.67566 9.0675 9.31182 8.888 9.1847C8.70849 9.05757 8.26192 8.74195 7.89415 8.47893C6.76896 7.67234 6.17353 7.25589 6.08597 7.21644C5.92398 7.14192 5.99403 7.07178 6.26985 7.01918C6.55443 6.96657 8.88362 6.4756 9.23825 6.3967C9.61915 6.31341 11.1077 5.99779 11.7119 5.87066C12.3555 5.73915 13.0516 5.59449 14.295 5.32709C14.7022 5.23942 15.1269 5.15174 15.2363 5.12982C15.3458 5.10791 15.8974 4.99393 16.4622 4.87119C17.027 4.75283 17.9727 4.55118 18.5637 4.42844C19.1548 4.3057 19.7546 4.17857 19.8991 4.1435C20.0436 4.10844 20.3676 4.0383 20.6215 3.99008C20.8754 3.93747 21.4927 3.80596 22.0006 3.70076C22.5041 3.59117 23.047 3.47719 23.2046 3.44212C23.3622 3.41144 23.638 3.35445 23.8175 3.315C23.9971 3.27554 24.3342 3.20979 24.5618 3.16157C24.7895 3.11335 25.2142 3.02129 25.5031 2.95992C25.7921 2.89855 26.1642 2.81964 26.335 2.78457C26.5014 2.74951 26.9173 2.66183 27.2544 2.59169C28.8349 2.25854 29.137 2.19278 29.7281 2.07004C31.1466 1.77195 32.6571 1.45195 33.5152 1.26783C35.0169 0.947828 34.8856 0.969746 34.96 1.05304ZM33.8654 1.57907C33.5371 1.72812 32.8541 2.03936 31.5669 2.63115C30.9277 2.92485 30.2184 3.24924 29.9908 3.35445C29.7631 3.45966 29.3297 3.65692 29.0276 3.79281C28.7255 3.93309 28.257 4.14789 27.9812 4.2794C27.7097 4.41091 27.4777 4.51611 27.4689 4.51611C27.4558 4.51611 26.7115 4.85365 26.0285 5.17366C25.8621 5.25257 24.6319 5.81367 23.6205 6.27834C23.3535 6.40108 23.0207 6.55451 22.8762 6.62026C22.7318 6.6904 22.3859 6.84821 22.1101 6.97095C21.8342 7.09808 21.4884 7.25589 21.3439 7.32165C21.1994 7.3874 20.836 7.55398 20.5339 7.69426C20.2318 7.83453 19.8684 8.00111 19.724 8.06687C19.3343 8.2466 18.879 8.45701 18.6294 8.57099C18.5068 8.62359 18.2923 8.72441 18.1478 8.79017C17.0883 9.27675 16.8563 9.38196 16.6811 9.46087C16.5717 9.50909 16.2696 9.64936 16.0113 9.7721C15.7486 9.89485 15.5297 9.99567 15.5209 9.99567C15.5122 9.99567 15.3239 10.0833 15.0962 10.1886C14.873 10.2938 14.4921 10.4691 14.2513 10.5787C14.0105 10.6883 13.4719 10.9338 13.0604 11.1267L12.303 11.473L12.9203 11.9727C13.2618 12.2489 13.577 12.5031 13.6208 12.5382C13.6646 12.5733 13.8091 12.6916 13.9448 12.8012C14.1724 12.9809 14.6934 13.4061 14.908 13.5815C15.1969 13.8226 16.0988 14.5503 16.2214 14.6423C16.344 14.7344 16.738 15.0544 17.5524 15.7207L17.6662 15.8171L18.0821 15.4621C18.3098 15.2648 18.6557 14.9667 18.8527 14.7958C19.0453 14.6292 19.3693 14.3486 19.5663 14.182C19.7677 14.0111 19.9735 13.8357 20.0304 13.7875C20.2056 13.6297 20.7528 13.1607 22.5435 11.6264C22.8149 11.3941 23.2221 11.0434 23.4454 10.8505C23.6687 10.6576 24.0934 10.2938 24.3867 10.0395C24.6844 9.78526 25.096 9.43018 25.3061 9.25045C25.5163 9.07072 25.8227 8.8077 25.9891 8.66304C26.4357 8.28167 26.7246 8.03618 27.145 7.67234C27.3551 7.49261 27.7667 7.13753 28.0644 6.88328C28.3621 6.62903 28.7736 6.27396 28.9838 6.09423C29.1939 5.9145 29.6055 5.55942 29.9032 5.30517C30.2009 5.05092 30.6125 4.69584 30.8226 4.51611C31.0284 4.33638 31.3173 4.08652 31.4574 3.96816C31.6019 3.84542 31.8165 3.6613 31.939 3.55171C32.066 3.44212 32.3024 3.24047 32.4688 3.1002C32.7797 2.83718 32.9198 2.71444 33.6071 2.12264C33.826 1.92976 34.1369 1.66675 34.2945 1.53524C34.4521 1.40373 34.5835 1.28098 34.5835 1.26345C34.5878 1.2503 34.474 1.28975 34.3339 1.35989C34.1982 1.42565 33.9836 1.52209 33.8654 1.57907ZM32.7709 1.55715C32.3594 1.64044 31.8865 1.74127 31.7201 1.77634C31.5494 1.81579 30.989 1.93415 30.4724 2.04374C29.9557 2.14895 29.3515 2.27607 29.137 2.32429C28.9181 2.37251 28.3095 2.49964 27.7798 2.60923C27.25 2.71882 26.6984 2.83718 26.5539 2.86786C26.4094 2.90293 26.1818 2.95115 26.0504 2.97746C25.9191 3.00814 25.2974 3.13965 24.6713 3.27116C24.0452 3.40267 23.3929 3.54295 23.2265 3.57363C23.0557 3.6087 22.6442 3.69637 22.3071 3.76651C21.97 3.83665 21.449 3.94624 21.1469 4.012C20.8448 4.07337 20.0392 4.24433 19.3518 4.38899C18.6644 4.53365 17.5436 4.77037 16.8563 4.91503C16.1689 5.05969 15.5297 5.19558 15.4334 5.2175C15.337 5.23942 14.6847 5.37531 13.9886 5.52435C13.2881 5.66901 12.5394 5.82682 12.3249 5.87504C12.1059 5.91888 11.4974 6.05039 10.9676 6.15998C10.4379 6.26957 9.6892 6.42738 9.30392 6.51067C8.91864 6.59396 8.32759 6.72109 7.99047 6.79123C6.59384 7.08493 6.3399 7.14192 6.31801 7.15945C6.3005 7.18137 6.55881 7.36987 7.59644 8.11509C8.22252 8.56222 9.40024 9.39511 9.64542 9.56607C9.84682 9.70635 10.1445 9.91676 10.9764 10.5129C11.6419 10.9908 11.4361 10.9951 12.6357 10.4779C13.2092 10.2324 13.7609 9.99567 13.8572 9.95183C13.9535 9.908 14.1506 9.82471 14.295 9.76334C14.4395 9.70197 14.9518 9.48278 15.4334 9.27237C15.915 9.06195 16.9176 8.62797 17.6662 8.30797C18.4105 7.98796 19.4875 7.52329 20.0523 7.27781C20.6171 7.03233 21.3264 6.72547 21.6285 6.59835C21.9306 6.47122 22.5698 6.19505 23.0514 5.98464C23.533 5.77422 24.1722 5.49805 24.4743 5.37092C24.7764 5.2438 25.4856 4.93694 26.0504 4.69146C26.6152 4.44598 27.2544 4.16981 27.4733 4.07775C27.6878 3.98569 28.1607 3.78405 28.5241 3.62623C29.7806 3.08266 32.4688 1.91661 33.0774 1.65798C33.6903 1.39496 33.8304 1.32482 33.6246 1.37304C33.5633 1.38619 33.1781 1.46948 32.7709 1.55715ZM32.158 2.19278C32.1448 2.21908 32.1623 2.22347 32.1974 2.21032C32.2762 2.17963 32.2893 2.14895 32.228 2.14895C32.2017 2.14895 32.1711 2.16648 32.158 2.19278ZM31.8515 2.32868C31.7858 2.39005 31.8821 2.37251 32.0047 2.29799L32.1142 2.23224L32.0047 2.26292C31.9434 2.27607 31.8778 2.30676 31.8515 2.32868ZM31.2342 2.58731C31.1203 2.63553 31.0415 2.68813 31.0547 2.70129C31.0678 2.71444 31.1729 2.67498 31.2911 2.61361C31.545 2.4821 31.5187 2.46895 31.2342 2.58731ZM30.7044 2.81526C30.6256 2.84595 30.5599 2.8854 30.5599 2.90293C30.5599 2.95554 30.6081 2.94239 30.7788 2.85033C30.954 2.75389 30.9189 2.73635 30.7044 2.81526ZM29.8944 3.17034C29.5836 3.29746 29.4741 3.37637 29.6011 3.37637C29.6712 3.37637 30.3848 3.03444 30.3848 3.00376C30.3848 2.96869 30.3454 2.98184 29.8944 3.17034ZM29.2465 3.48596C29.2465 3.49911 29.2859 3.50788 29.334 3.50788C29.3822 3.50788 29.4216 3.47719 29.4216 3.44212C29.4216 3.38513 29.4041 3.38075 29.334 3.4202C29.2859 3.44651 29.2465 3.47719 29.2465 3.48596ZM28.8218 3.62623C28.7167 3.67007 28.6335 3.73144 28.6335 3.76651C28.6335 3.7972 28.6598 3.81473 28.6861 3.80158C29.0319 3.66569 29.1151 3.62623 29.1151 3.59117C29.1151 3.53418 29.0276 3.54295 28.8218 3.62623ZM28.2877 3.86295C28.1563 3.91117 28.1169 3.96378 28.1826 4.00323C28.2395 4.03391 28.5066 3.9024 28.4803 3.85857C28.4453 3.80596 28.4584 3.80596 28.2877 3.86295ZM27.7272 4.10405C27.5565 4.16981 27.4646 4.29693 27.5915 4.29693C27.6747 4.29693 28.0206 4.1172 28.0206 4.07337C28.0206 4.01638 27.9374 4.02515 27.7272 4.10405ZM26.8429 4.50296C26.8297 4.51173 26.8472 4.54242 26.8735 4.56872C26.9173 4.61255 27.1362 4.54242 27.3989 4.40214C27.4033 4.40214 27.3989 4.36707 27.3858 4.32762C27.3595 4.27063 27.3245 4.27501 27.1099 4.37145C26.9742 4.43283 26.8516 4.4942 26.8429 4.50296ZM25.4944 5.07284C25.455 5.08599 25.4506 5.11667 25.4812 5.17366C25.5338 5.2701 25.5207 5.27448 26.2912 4.91064C26.6765 4.73091 26.7509 4.68269 26.7115 4.63009C26.6677 4.57749 26.5714 4.60817 26.1029 4.80982C25.7965 4.94133 25.5207 5.05969 25.4944 5.07284ZM24.8946 5.32709C24.7282 5.39723 24.7151 5.41914 24.7807 5.52435C24.8158 5.57696 24.8464 5.57257 25.0215 5.48928C25.1923 5.40599 25.2186 5.37969 25.1748 5.32709C25.1091 5.2438 25.0916 5.2438 24.8946 5.32709ZM24.3298 5.57257C24.1503 5.63394 24.1415 5.64709 24.2247 5.76107C24.2773 5.83559 24.2904 5.83559 24.4524 5.76107C24.5487 5.71723 24.6319 5.67778 24.6363 5.67778C24.6406 5.6734 24.6363 5.62956 24.6188 5.57257C24.6056 5.51997 24.5706 5.4849 24.5443 5.49367C24.5181 5.50243 24.4217 5.5375 24.3298 5.57257ZM23.7957 5.79614C23.6818 5.84874 23.6643 5.90135 23.7256 6.00217C23.7606 6.05916 23.7913 6.05477 23.9445 5.98902C24.0934 5.91888 24.1153 5.89696 24.0759 5.82682C24.0277 5.73038 23.9533 5.72162 23.7957 5.79614ZM23.2177 6.05916C23.0601 6.11614 23.0514 6.14245 23.117 6.26957C23.1608 6.35286 23.1696 6.35286 23.3141 6.28272C23.476 6.2082 23.4848 6.19067 23.441 6.07669C23.4104 5.9934 23.4016 5.9934 23.2177 6.05916ZM22.4297 6.38355C22.2721 6.4493 22.2502 6.51506 22.3421 6.6378C22.399 6.71232 22.4122 6.71232 22.6267 6.60273C22.7537 6.53697 22.8543 6.4756 22.8543 6.46684C22.8543 6.45368 22.8281 6.40546 22.8018 6.35724C22.7449 6.26519 22.7099 6.26957 22.4297 6.38355ZM21.7773 6.6641C21.7379 6.6641 21.7686 6.77807 21.8211 6.8526C21.8736 6.92273 21.8912 6.92273 22.04 6.86136C22.2195 6.78684 22.2108 6.79561 22.1538 6.64218C22.1101 6.53259 22.1101 6.53259 21.9524 6.59835C21.8649 6.63341 21.7861 6.6641 21.7773 6.6641ZM21.3351 6.86575L21.1512 6.93589L21.2169 7.0674C21.287 7.20329 21.3395 7.20329 21.5978 7.07178C21.716 7.01479 21.716 6.98411 21.6153 6.84821C21.5628 6.78246 21.5584 6.78246 21.3351 6.86575ZM20.8973 7.04986C20.8579 7.07616 20.871 7.12 20.9498 7.21206C21.0724 7.36987 21.1381 7.33041 21.0593 7.1463C21.0024 7.00602 20.9805 6.99726 20.8973 7.04986ZM20.4288 7.26028C20.2931 7.32165 20.1837 7.37863 20.1837 7.3874C20.1837 7.44001 20.2887 7.6285 20.3194 7.6285C20.3938 7.6285 20.8404 7.4137 20.8404 7.37863C20.8404 7.33918 20.7134 7.1463 20.6915 7.1463C20.6828 7.1463 20.5646 7.19891 20.4288 7.26028ZM19.8159 7.51891L19.6539 7.58905L19.7327 7.71618C19.8159 7.86084 19.8641 7.87399 20.0304 7.79508C20.153 7.73809 20.1618 7.72056 20.0873 7.56275C20.0304 7.43562 20.0261 7.43124 19.8159 7.51891ZM19.0979 7.83015C19.0585 7.86084 19.1898 8.15892 19.238 8.14139C19.5751 8.0055 19.6583 7.96604 19.6583 7.93536C19.6583 7.91782 19.6189 7.85207 19.5663 7.7907C19.4788 7.67672 19.4788 7.67672 19.2949 7.74686C19.1942 7.78631 19.1023 7.82138 19.0979 7.83015ZM18.6382 8.02741C18.5506 8.0581 18.4762 8.09317 18.4762 8.1107C18.4806 8.12385 18.5243 8.18961 18.5813 8.25975C18.682 8.38249 18.6951 8.38687 18.8352 8.32989C18.914 8.2992 18.9972 8.25975 19.0147 8.24221C19.0672 8.19399 18.9184 7.92221 18.8571 7.94851C18.8264 7.95728 18.7301 7.99234 18.6382 8.02741ZM18.2135 8.22468C18.2135 8.26413 18.3623 8.54907 18.3842 8.54907C18.3974 8.54907 18.4368 8.53153 18.4674 8.50961C18.5156 8.47893 18.5068 8.44386 18.428 8.31673C18.3711 8.23345 18.3011 8.17207 18.2704 8.18522C18.2398 8.19838 18.2135 8.21591 18.2135 8.22468ZM17.8457 8.37372C17.7363 8.41756 17.6443 8.47893 17.6443 8.50085C17.6443 8.52277 17.6925 8.59729 17.7494 8.66743L17.8545 8.78578L18.034 8.70688C18.1303 8.65866 18.2135 8.61921 18.2135 8.61044C18.2135 8.58852 18.0646 8.28605 18.0559 8.28605C18.0515 8.28605 17.9552 8.3255 17.8457 8.37372ZM17.316 8.60167C17.2547 8.62797 17.2109 8.66304 17.2196 8.67619C17.224 8.68934 17.2591 8.75948 17.2941 8.834C17.3291 8.90414 17.3597 8.97428 17.3685 8.98305C17.3816 9.00497 17.6443 8.89538 17.6443 8.86469C17.6443 8.834 17.4648 8.54907 17.4473 8.54907C17.4386 8.54907 17.3773 8.57099 17.316 8.60167ZM16.8825 8.79017L16.7249 8.85592L16.8387 9.03127C16.9526 9.20223 16.957 9.20223 17.0795 9.13648C17.1496 9.10141 17.2065 9.06634 17.2065 9.05319C17.2065 9.03127 17.062 8.72441 17.0489 8.72441C17.0445 8.72441 16.9701 8.7551 16.8825 8.79017ZM16.3878 8.9962C16.3221 9.02688 16.2565 9.05319 16.2477 9.05757C16.2258 9.0751 16.3878 9.4258 16.4228 9.4258C16.4403 9.4258 16.5323 9.39073 16.6286 9.34689L16.8081 9.26799L16.6943 9.10579C16.5673 8.92606 16.5585 8.92168 16.3878 8.9962ZM15.7967 9.25483C15.6698 9.30305 15.5559 9.35127 15.5472 9.36443C15.5297 9.38196 15.753 9.73265 15.7836 9.73265C15.8011 9.73265 16.1952 9.55292 16.2389 9.52662C16.2696 9.50909 16.1032 9.16278 16.0638 9.16278C16.0419 9.16278 15.9237 9.20223 15.7967 9.25483ZM15.1619 9.52224C15.0831 9.55292 15.0174 9.59237 15.0174 9.60991C15.0174 9.66251 15.1882 9.99567 15.2188 9.99567C15.267 9.99567 15.5866 9.81594 15.5866 9.78964C15.5866 9.73265 15.3896 9.46963 15.3502 9.46963C15.3283 9.46963 15.2407 9.49155 15.1619 9.52224ZM14.6409 9.75895C14.5446 9.79841 14.4264 9.84663 14.3695 9.86854L14.2688 9.908L14.4132 10.0965L14.5577 10.2894L14.7547 10.2017C14.8642 10.1535 14.9693 10.1009 14.9868 10.0833C15.0174 10.0527 14.8686 9.68881 14.8248 9.68881C14.816 9.68881 14.7328 9.7195 14.6409 9.75895ZM13.9229 10.0658C13.8266 10.1053 13.7478 10.1535 13.7478 10.1754C13.7478 10.228 13.9185 10.5655 13.9404 10.5655C13.9973 10.5655 14.3607 10.3858 14.3607 10.3595C14.3607 10.3244 14.1374 9.99567 14.1155 9.99567C14.1068 9.99567 14.0192 10.0264 13.9229 10.0658ZM13.2618 10.3507C13.1786 10.3946 13.1786 10.4033 13.3187 10.5787C13.3931 10.6795 13.4632 10.7672 13.4676 10.776C13.4719 10.7847 13.5464 10.7628 13.6296 10.7234L13.7872 10.662L13.669 10.4428C13.5464 10.2105 13.5289 10.2061 13.2618 10.3507ZM12.8108 10.5436C12.7233 10.5787 12.6532 10.6181 12.6532 10.6313C12.6532 10.6795 12.8502 11.0477 12.8765 11.0477C12.8896 11.0477 12.9947 11.0083 13.1085 10.9557L13.3099 10.868L13.1786 10.6708C13.1042 10.5655 13.0254 10.4779 13.0079 10.4779C12.986 10.4779 12.8984 10.5086 12.8108 10.5436ZM12.3905 10.7277C12.3905 10.7935 12.6707 11.188 12.6882 11.1442C12.7058 11.0828 12.4825 10.6971 12.4299 10.6971C12.408 10.6971 12.3905 10.7102 12.3905 10.7277ZM12.0359 10.8724C11.9571 10.9162 11.9571 10.925 12.0622 11.1354C12.1235 11.2582 12.1935 11.3546 12.2198 11.3546C12.2592 11.3546 12.4299 11.2801 12.4737 11.2406C12.5044 11.2099 12.2329 10.8286 12.1804 10.8286C12.1497 10.8286 12.0841 10.8505 12.0359 10.8724ZM11.6594 11.039C11.5543 11.1047 11.6813 11.3853 12.1541 12.1086C12.4168 12.5075 12.6532 12.8713 12.6795 12.9196C12.7101 12.9634 12.7452 12.9809 12.7671 12.9634C12.7846 12.9459 12.7101 12.7486 12.5963 12.525C11.7907 10.9382 11.7951 10.9513 11.6594 11.039ZM12.6357 12.2269C12.9072 12.7398 12.9247 12.7486 13.0735 12.468C13.1523 12.319 13.1523 12.3102 13.0779 12.2576C13.0385 12.2226 12.9203 12.1305 12.824 12.0516C12.7233 11.9683 12.5919 11.8587 12.5263 11.8061C12.465 11.7535 12.4037 11.7184 12.3949 11.7272C12.3862 11.736 12.4956 11.9595 12.6357 12.2269ZM11.7382 11.9771C11.7688 12.0341 11.9571 12.3497 12.1629 12.6872C12.4606 13.1738 12.5438 13.279 12.5744 13.222C12.6051 13.165 12.5569 13.0555 12.3774 12.7661C11.8827 11.9639 11.7119 11.7228 11.6988 11.7973C11.69 11.8412 11.7075 11.9201 11.7382 11.9771ZM12.6839 13.2922C12.3774 13.7481 12.1497 14.1163 12.1672 14.1163C12.1891 14.1163 12.4868 13.9848 12.8327 13.827C13.7828 13.393 13.8879 13.3448 14.0411 13.2834C14.2118 13.2176 14.225 13.1519 14.0849 13.0686C13.9886 13.0072 13.7346 12.8012 13.45 12.5513C13.3581 12.4768 13.2749 12.4242 13.2618 12.4417C13.2443 12.4593 12.986 12.8407 12.6839 13.2922ZM12.0709 12.9765C12.2329 13.2396 12.3818 13.4544 12.3993 13.4587C12.4168 13.4587 12.2898 13.222 12.1147 12.9327C11.9396 12.6434 11.7951 12.4242 11.7863 12.4505C11.7776 12.4768 11.9046 12.7091 12.0709 12.9765ZM12.0271 13.3535C12.1191 13.5464 12.1979 13.7086 12.2066 13.7174C12.211 13.7305 12.2373 13.7174 12.2592 13.6955C12.2898 13.6648 12.2373 13.542 12.1016 13.3141C11.9877 13.1256 11.887 12.9853 11.8783 12.9941C11.8695 13.0028 11.9352 13.165 12.0271 13.3535ZM11.9877 13.8357C12.1016 14.0593 12.1366 13.9629 12.0271 13.7218C11.9658 13.5946 11.9308 13.5508 11.9177 13.599C11.9089 13.6385 11.9396 13.7437 11.9877 13.8357Z" fill="black" stroke="black"/>
<path d="M8.63531 14.0407C8.85483 14.1876 8.80481 14.7752 8.52694 15.3314C8.43247 15.5203 8.25185 15.8062 8.1935 15.8613C8.12403 15.9269 7.99621 16.1053 8.0101 16.1184C8.049 16.1525 8.36022 16.1525 8.55473 16.1132C8.81871 16.0607 9.3022 15.8377 9.59119 15.6305C10.0747 15.2868 10.4859 14.8513 10.8222 14.3319C10.9166 14.1902 11 14.1378 11 14.2217C11 14.2427 10.9917 14.2611 10.9778 14.2611C10.9667 14.2611 10.9027 14.3503 10.8333 14.4604C10.5887 14.8539 10.2164 15.2553 9.82182 15.5544C9.12992 16.0791 8.49082 16.3073 8.01288 16.2024C7.91285 16.1814 7.89617 16.184 7.84616 16.2417C7.75724 16.3388 7.4488 16.588 7.2654 16.7087C6.92084 16.9343 6.59851 17.1022 5.54816 17.5901C3.94206 18.3352 3.30017 18.7287 2.54436 19.4265C2.08588 19.8488 1.77744 20.2528 1.51624 20.7723C1.30506 21.1894 1.14945 21.6091 1.09387 21.9003C1.08276 21.9606 1.05775 22 1.03552 22C0.982725 22 0.985504 21.9659 1.06609 21.6721C1.22725 21.0897 1.57737 20.405 1.96917 19.9144C2.17479 19.6547 2.82779 19.0408 3.04175 18.9018C3.11678 18.8546 3.18347 18.8074 3.1918 18.7995C3.20014 18.7916 3.33352 18.6972 3.48635 18.5949C3.92817 18.2984 4.46446 18.0046 5.08133 17.7187C6.81525 16.9185 7.11535 16.7585 7.58218 16.3729C7.72111 16.2601 7.83226 16.1604 7.83226 16.1525C7.83226 16.1446 7.77669 16.1053 7.71278 16.0686C7.62664 16.0213 7.56828 15.9558 7.49882 15.8325C7.41268 15.6803 7.40156 15.6383 7.39323 15.4127C7.37933 15.1163 7.42101 14.951 7.57662 14.6677C7.82948 14.2138 8.39356 13.8807 8.63531 14.0407ZM8.29631 14.1168C7.98231 14.2401 7.69333 14.5391 7.55161 14.8854C7.4877 15.0455 7.4488 15.439 7.48214 15.6095C7.50993 15.7406 7.70444 16.0056 7.80448 16.045C7.91007 16.0869 7.92674 16.0738 8.13236 15.8089C8.49082 15.3524 8.71589 14.7621 8.68811 14.3529C8.67977 14.206 8.66588 14.1666 8.61308 14.1273C8.53528 14.0669 8.42969 14.0643 8.29631 14.1168Z" fill="black" stroke="black"/>
</svg>
